<svg width="26" height="27" viewBox="0 0 26 27" fill="none" xmlns="http://www.w3.org/2000/svg">
<g clip-path="url(#clip0_22_17)">
<path fill-rule="evenodd" clip-rule="evenodd" d="M26 13.1045C26 20.2842 20.1797 26.1045 13 26.1045C5.82029 26.1045 0 20.2842 0 13.1045C0 5.92476 5.82029 0.104462 13 0.104462C20.1797 0.104462 26 5.92476 26 13.1045ZM10.7194 7.36262C10.2566 7.26382 9.7449 7.2139 9.18434 7.2139H3.6401V18.9961H9.35074C9.87074 18.9971 10.3897 18.9305 10.8931 18.7985C11.3933 18.6664 11.8384 18.4636 12.2295 18.188C12.6205 17.9134 12.9315 17.5588 13.1623 17.1241C13.3932 16.6893 13.5087 16.1745 13.5087 15.5807C13.5087 14.8433 13.3298 14.2131 12.972 13.691C12.6143 13.1689 12.0724 12.8029 11.3465 12.5938C11.8738 12.3411 12.2731 12.0166 12.5425 11.6204C12.8119 11.2241 12.9471 10.7291 12.9471 10.1353C12.9471 9.5851 12.8566 9.12334 12.6746 8.74894C12.4926 8.37454 12.2367 8.07502 11.9071 7.84934C11.5774 7.62366 11.1822 7.46142 10.7194 7.36262ZM9.99346 11.6526C9.69602 11.8721 9.31642 11.9823 8.85466 11.9823L6.23178 11.9844V9.22838H8.65602C8.88066 9.22734 9.10426 9.2471 9.32474 9.28558C9.53898 9.32406 9.72826 9.3927 9.89362 9.4915C10.059 9.5903 10.1911 9.72862 10.2899 9.90438C10.3887 10.0801 10.4386 10.3058 10.4386 10.5804C10.4396 11.0754 10.2909 11.4321 9.99346 11.6526ZM9.7293 16.9077C9.49114 16.9577 9.24778 16.9826 9.00338 16.9816L6.23178 16.9826V13.7482H9.0533C9.61386 13.7482 10.0652 13.8772 10.4063 14.1361C10.7475 14.3941 10.918 14.8267 10.918 15.4309C10.918 15.7388 10.865 15.9925 10.761 16.1901C10.6559 16.3877 10.5155 16.5448 10.3398 16.6602C10.164 16.7757 9.96018 16.8578 9.7293 16.9077ZM18.2864 17.2457C17.626 17.2457 17.1195 17.0752 16.768 16.7341C16.4165 16.394 16.2241 15.8438 16.1919 15.0877H22.3466C22.3902 14.4273 22.3351 13.795 22.1812 13.1897C22.0273 12.5845 21.7767 12.0457 21.4303 11.5725C21.084 11.0993 20.641 10.7229 20.1023 10.4421C19.5625 10.1613 18.9302 10.0209 18.2043 10.0209C17.5553 10.0209 16.9635 10.1363 16.43 10.3672C15.8965 10.5981 15.4368 10.9142 15.052 11.3157C14.6672 11.7171 14.3698 12.1924 14.1607 12.7425C13.9517 13.2927 13.8477 13.8865 13.8477 14.5241C13.8477 15.1834 13.9496 15.7887 14.1524 16.3389C14.3552 16.889 14.6443 17.3612 15.0187 17.7574C15.3931 18.1537 15.8497 18.4594 16.3884 18.6737C16.9271 18.8879 17.5324 18.995 18.2032 18.995C19.1715 18.995 19.9962 18.7745 20.6784 18.3346C21.3607 17.8947 21.8671 17.1636 22.1968 16.1402H20.1345C20.0575 16.4044 19.8485 16.655 19.5074 16.8911C19.1663 17.1272 18.7596 17.2457 18.2864 17.2457ZM18.1377 11.7847C18.7097 11.7847 19.1361 11.9386 19.4169 12.2465C19.6967 12.5543 19.8922 13.0057 20.0035 13.5985H16.1919C16.2023 13.4341 16.2387 13.2469 16.299 13.0379C16.3593 12.8289 16.4633 12.6313 16.612 12.4441C16.7607 12.2569 16.9583 12.1009 17.2059 11.974C17.4523 11.8481 17.7633 11.7847 18.1377 11.7847ZM20.5526 7.8119H15.7904V9.1327H20.5526V7.8119Z" fill="white"/>
</g>
<defs>
<clipPath id="clip0_22_17">
<rect width="26" height="26" fill="white" transform="translate(0 0.104462)"/>
</clipPath>
</defs>
</svg>
