<svg width="32" height="32" viewBox="0 0 32 32" fill="none" xmlns="http://www.w3.org/2000/svg">
<rect width="32" height="32" rx="6" fill="#131D2D"/>
<g clip-path="url(#clip0_20_2)">
<path fill-rule="evenodd" clip-rule="evenodd" d="M18.7734 15.8698C18.7571 15.9742 18.7175 16.0735 18.6574 16.1603C18.5972 16.2471 18.5183 16.3192 18.4264 16.3712C18.2412 16.4907 18.0793 16.5505 17.9154 16.6103C17.5664 16.7308 17.199 16.8513 16.8105 16.9911C16.4008 17.1309 16.0334 17.2707 15.7056 17.3719C15.2968 17.5117 14.9083 17.6322 14.539 17.772C14.2612 17.8909 14.0003 18.0458 13.7629 18.2329C13.5422 18.4329 13.3495 18.6619 13.1903 18.9136C13.0264 19.1931 12.9232 19.5537 12.9232 19.9741C12.9232 20.8157 13.1276 21.4559 13.5373 21.856C13.9461 22.2774 14.7039 22.4769 15.8271 22.4769C16.9725 22.4769 17.7496 22.2571 18.1603 21.8165C18.5681 21.3759 18.7724 20.756 18.7724 19.9558V15.8698H18.7734ZM15.8281 7C17.8334 7 19.3056 7.38082 20.2456 8.16176C21.1866 8.92341 21.6571 9.90295 21.6571 11.0637V20.9556C21.6571 21.3556 21.5761 21.7963 21.4334 22.2764C21.2888 22.7584 21.0034 23.1981 20.5532 23.5972C20.1241 23.9992 19.5312 24.3396 18.7744 24.5999C18.0176 24.8602 17.0361 25 15.829 25C14.6239 25 13.6405 24.8602 12.8846 24.5999C12.1288 24.3396 11.5349 23.9992 11.1058 23.5972C10.7067 23.2375 10.4044 22.7834 10.2266 22.2764C10.0819 21.7972 10 21.3566 10 20.9565V19.3754C10 18.5337 10.2246 17.7528 10.6749 17.0711C11.1251 16.3712 11.7585 15.8911 12.5771 15.5902C12.9859 15.4504 13.4563 15.3107 13.9876 15.1304C14.5198 14.9491 15.0095 14.7688 15.5012 14.6098C15.9929 14.4487 16.4219 14.2877 16.7893 14.147C17.011 14.0583 17.2361 13.9785 17.4641 13.9079L17.8325 13.7276C17.9771 13.6476 18.1188 13.5271 18.2624 13.367C18.4051 13.2079 18.5276 13.0276 18.6307 12.8271C18.7398 12.61 18.7959 12.3701 18.7947 12.1272V11.486C18.7962 11.251 18.7468 11.0185 18.65 10.8044C18.569 10.5634 18.4051 10.3435 18.1805 10.144C17.9558 9.94344 17.6483 9.7834 17.281 9.66192C16.9127 9.54333 16.4229 9.48259 15.8695 9.48259C14.7241 9.48259 13.9673 9.70434 13.5585 10.1633C13.2115 10.5643 13.0071 11.0647 12.9666 11.6248C12.9666 11.7454 12.8644 11.8254 12.741 11.8254L10.2468 11.8659C10.1876 11.8662 10.1306 11.843 10.0884 11.8015C10.0461 11.7599 10.022 11.7034 10.0212 11.6442V11.0657C10.0212 10.5036 10.1244 9.98297 10.349 9.48259C10.5746 8.98125 10.9227 8.56186 11.3922 8.20032C11.8627 7.84071 12.4768 7.54087 13.2124 7.34033C13.9288 7.0993 14.808 7 15.83 7H15.8281Z" fill="white"/>
</g>
<defs>
<clipPath id="clip0_20_2">
<rect width="12" height="18" fill="white" transform="translate(10 7)"/>
</clipPath>
</defs>
</svg>
