<svg width="26" height="27" viewBox="0 0 26 27" fill="none" xmlns="http://www.w3.org/2000/svg">
<g clip-path="url(#clip0_22_21)">
<path d="M13 0.104446C20.1825 0.104446 26 5.92195 26 13.1044C25.9993 15.8283 25.1444 18.4833 23.5557 20.6958C21.967 22.9084 19.7245 24.567 17.1438 25.4382C16.4938 25.5682 16.25 25.1619 16.25 24.8207C16.25 24.3819 16.2663 22.9844 16.2663 21.2457C16.2663 20.0269 15.86 19.2469 15.3888 18.8407C18.2813 18.5157 21.32 17.4107 21.32 12.4219C21.32 10.9919 20.8163 9.8382 19.9875 8.9282C20.1175 8.6032 20.5725 7.2707 19.8575 5.4832C19.8575 5.4832 18.7688 5.1257 16.2825 6.8157C15.2425 6.5232 14.1375 6.37695 13.0325 6.37695C11.9275 6.37695 10.8225 6.5232 9.7825 6.8157C7.29625 5.14195 6.2075 5.4832 6.2075 5.4832C5.4925 7.2707 5.9475 8.6032 6.0775 8.9282C5.24875 9.8382 4.745 11.0082 4.745 12.4219C4.745 17.3944 7.7675 18.5157 10.66 18.8407C10.2863 19.1657 9.945 19.7344 9.83125 20.5794C9.08375 20.9207 7.215 21.4732 6.045 19.5069C5.80125 19.1169 5.07 18.1582 4.04625 18.1744C2.9575 18.1907 3.6075 18.7919 4.0625 19.0357C4.615 19.3444 5.24875 20.4982 5.395 20.8719C5.655 21.6032 6.5 23.0007 9.76625 22.3994C9.76625 23.4882 9.7825 24.5119 9.7825 24.8207C9.7825 25.1619 9.53875 25.5519 8.88875 25.4382C6.29954 24.5764 4.04744 22.9211 2.45195 20.7072C0.856451 18.4934 -0.00143078 15.8333 1.79126e-06 13.1044C1.79126e-06 5.92195 5.8175 0.104446 13 0.104446Z" fill="white"/>
</g>
<defs>
<clipPath id="clip0_22_21">
<rect width="26" height="26" fill="white" transform="translate(0 0.104446)"/>
</clipPath>
</defs>
</svg>
