<svg width="26" height="27" viewBox="0 0 26 27" fill="none" xmlns="http://www.w3.org/2000/svg">
<g clip-path="url(#clip0_22_12)">
<path fill-rule="evenodd" clip-rule="evenodd" d="M1.92156 0.0522156C0.860641 0.0522156 0 0.886654 0 1.91467V24.1904C0 25.2185 0.860743 26.0522 1.92156 26.0522H24.0785C25.1398 26.0522 26 25.2184 26 24.1901V1.91467C26 0.886654 25.1398 0.0522156 24.0785 0.0522156H1.92156ZM7.90119 10.1055V21.8108H4.01053V10.1055H7.90119ZM8.15763 6.4855C8.15763 7.60878 7.31314 8.50761 5.95667 8.50761L5.95636 8.50751H5.93118C4.62539 8.50751 3.7812 7.60868 3.7812 6.4854C3.7812 5.33662 4.65088 4.46288 5.98247 4.46288C7.31314 4.46288 8.13224 5.33662 8.15763 6.4855ZM13.9451 21.8108H10.0547L10.0546 21.8112C10.0546 21.8112 10.1057 11.204 10.0549 10.1059H13.9454V11.7627C14.4625 10.9653 15.3881 9.83107 17.4518 9.83107C20.0115 9.83107 21.9306 11.5041 21.9306 15.0993V21.8108H18.0404V15.5495C18.0404 13.9757 17.477 12.9024 16.0696 12.9024C14.9945 12.9024 14.3544 13.6263 14.0732 14.3255C13.9705 14.5751 13.9451 14.9254 13.9451 15.2747V21.8108Z" fill="white"/>
</g>
<defs>
<clipPath id="clip0_22_12">
<rect width="26" height="26.1045" fill="white"/>
</clipPath>
</defs>
</svg>
