<svg width="200" height="24" viewBox="0 0 200 24" fill="none" xmlns="http://www.w3.org/2000/svg">
<g opacity="0.2">
<path d="M127.226 14.6069H134.913L130.848 8.06542L123.388 19.8928H119.993L129.067 5.6856C129.462 5.11157 130.119 4.76477 130.848 4.76477C131.554 4.76477 132.211 5.09961 132.594 5.66168L141.704 19.8928H138.309L136.707 17.2499H128.924L127.226 14.6069ZM162.494 17.2499V4.90828H159.613V18.4577C159.613 18.8284 159.756 19.1872 160.031 19.4623C160.306 19.7373 160.677 19.8928 161.083 19.8928H174.222L175.92 17.2499H162.494ZM114.828 15.0375C117.626 15.0375 119.898 12.7772 119.898 9.97886C119.898 7.18048 117.626 4.90828 114.828 4.90828H102.224V19.8928H105.104V7.5512H114.637C115.976 7.5512 117.052 8.63946 117.052 9.97886C117.052 11.3183 115.976 12.4065 114.637 12.4065L106.515 12.3945L115.115 19.8928H119.3L113.513 15.0375H114.828ZM84.4946 19.8928C80.3593 19.8928 77.0034 16.5443 77.0034 12.4065C77.0034 8.26873 80.3593 4.90828 84.4946 4.90828H93.2015C97.338 4.90828 100.691 8.26873 100.691 12.4065C100.691 16.5443 97.338 19.8928 93.2015 19.8928H84.4946ZM93.0078 17.2499C95.6871 17.2499 97.8569 15.0853 97.8569 12.4065C97.8569 9.72772 95.6871 7.5512 93.0078 7.5512H84.6871C82.0091 7.5512 79.838 9.72772 79.838 12.4065C79.838 15.0853 82.0091 17.2499 84.6871 17.2499H93.0078ZM147.717 19.8928C143.581 19.8928 140.221 16.5443 140.221 12.4065C140.221 8.26873 143.581 4.90828 147.717 4.90828H158.058L156.373 7.5512H147.909C145.231 7.5512 143.055 9.72772 143.055 12.4065C143.055 15.0853 145.231 17.2499 147.909 17.2499H158.298L156.6 19.8928H147.717ZM182.949 17.2499C180.737 17.2499 178.861 15.767 178.287 13.722H190.601L192.298 11.0791H178.287C178.861 9.04605 180.737 7.5512 182.949 7.5512H191.402L193.111 4.90828H182.758C178.621 4.90828 175.262 8.26873 175.262 12.4065C175.262 16.5443 178.621 19.8928 182.758 19.8928H191.641L193.338 17.2499H182.949Z" fill="white"/>
<path d="M194.653 6.49883C194.653 5.76933 195.239 5.18335 195.968 5.18335C196.71 5.18335 197.295 5.76933 197.295 6.49883C197.295 7.24027 196.71 7.82627 195.968 7.82627C195.239 7.82627 194.653 7.24027 194.653 6.49883ZM195.968 8.197C196.901 8.197 197.654 7.44358 197.654 6.51079C197.654 5.578 196.901 4.82458 195.968 4.82458C195.048 4.82458 194.295 5.578 194.295 6.51079C194.295 7.44358 195.048 8.197 195.968 8.197ZM195.813 5.50625C196.076 5.50625 196.184 5.5182 196.303 5.56603C196.638 5.67367 196.674 5.97264 196.674 6.09223C196.674 6.11615 196.674 6.17594 196.65 6.24769C196.638 6.31945 196.59 6.46296 196.423 6.57058C196.399 6.58255 196.387 6.5945 196.339 6.61842L196.769 7.39575H196.351L195.968 6.67821H195.705V7.39575H195.335V5.50625H195.813ZM195.945 6.36728C196.064 6.35533 196.184 6.35533 196.255 6.24769C196.291 6.19986 196.303 6.15202 196.303 6.08026C196.303 5.9846 196.243 5.90089 196.16 5.85305C196.076 5.81718 195.992 5.81718 195.813 5.81718H195.705V6.36728H195.945Z" fill="white"/>
</g>
<g opacity="0.2" clip-path="url(#clip0_1_46)">
<path fill-rule="evenodd" clip-rule="evenodd" d="M8.3476 14.6346C8.33211 14.7339 8.29435 14.8283 8.23716 14.911C8.17997 14.9936 8.10483 15.0622 8.01737 15.1116C7.84124 15.2254 7.68713 15.2822 7.53119 15.3391C7.19912 15.4538 6.84962 15.5684 6.47994 15.7014C6.09008 15.8345 5.74058 15.9675 5.42869 16.0638C5.03975 16.1968 4.67007 16.3115 4.31874 16.4445C4.05441 16.5576 3.80613 16.705 3.5803 16.8829C3.37026 17.0732 3.18697 17.2911 3.03541 17.5306C2.87946 17.7966 2.78131 18.1397 2.78131 18.5396C2.78131 19.3404 2.97578 19.9495 3.36564 20.3302C3.75459 20.7311 4.4756 20.921 5.54428 20.921C6.63405 20.921 7.37341 20.7118 7.76419 20.2926C8.15221 19.8734 8.34669 19.2836 8.34669 18.5222V14.6346H8.3476ZM5.54519 6.19527C7.45322 6.19527 8.85396 6.55761 9.74835 7.30064C10.6437 8.02532 11.0913 8.95731 11.0913 10.0618V19.4735C11.0913 19.8541 11.0142 20.2734 10.8785 20.7302C10.7409 21.1888 10.4694 21.6071 10.041 21.9869C9.63277 22.3694 9.06862 22.6932 8.34852 22.9409C7.62842 23.1886 6.69459 23.3216 5.54611 23.3216C4.39946 23.3216 3.4638 23.1886 2.74462 22.9409C2.02544 22.6932 1.46037 22.3694 1.05216 21.9869C0.672423 21.6447 0.384751 21.2126 0.21557 20.7302C0.0779721 20.2743 0 19.8551 0 19.4744V17.97C0 17.1692 0.213735 16.4261 0.642123 15.7776C1.07051 15.1116 1.67319 14.6548 2.45199 14.3686C2.84094 14.2356 3.28859 14.1026 3.79403 13.931C4.30039 13.7586 4.76639 13.587 5.23422 13.4357C5.70205 13.2825 6.11026 13.1293 6.45976 12.9954C6.67067 12.911 6.88489 12.8351 7.10188 12.7679L7.4523 12.5963C7.5899 12.5202 7.72474 12.4055 7.86142 12.2532C7.99719 12.1019 8.11369 11.9303 8.21184 11.7395C8.31554 11.5329 8.36898 11.3047 8.36778 11.0736V10.4636C8.36922 10.24 8.32228 10.0187 8.23019 9.81501C8.15313 9.58568 7.99719 9.37653 7.78345 9.18664C7.56972 8.99584 7.27709 8.84357 6.92759 8.72798C6.57718 8.61515 6.11118 8.55736 5.58464 8.55736C4.49486 8.55736 3.77477 8.76835 3.38582 9.20499C3.05559 9.58659 2.86112 10.0627 2.82259 10.5956C2.82259 10.7103 2.72535 10.7864 2.60794 10.7864L0.234834 10.825C0.178462 10.8252 0.124276 10.8032 0.0840734 10.7637C0.0438704 10.7242 0.0209063 10.6704 0.020181 10.614V10.0636C0.020181 9.5288 0.118334 9.03345 0.332069 8.55736C0.546722 8.08036 0.877874 7.68132 1.32461 7.33733C1.77226 6.99517 2.35659 6.70988 3.05651 6.51908C3.73808 6.28975 4.57467 6.19527 5.54703 6.19527H5.54519ZM48.5675 14.6346C48.552 14.7339 48.5142 14.8283 48.457 14.911C48.3998 14.9936 48.3247 15.0622 48.2372 15.1116C48.0629 15.2254 47.907 15.2822 47.751 15.3391C47.4208 15.4538 47.0695 15.5684 46.6998 15.7014C46.3099 15.8345 45.9595 15.9675 45.6485 16.0638C45.2587 16.1968 44.889 16.3115 44.5386 16.4445C44.2739 16.5575 44.0253 16.7049 43.7992 16.8829C43.5895 17.0733 43.4065 17.2912 43.2553 17.5306C43.0993 17.7966 43.0021 18.1397 43.0021 18.5396C43.0021 19.3404 43.1947 19.9495 43.5846 20.3302C43.9735 20.7311 44.6945 20.921 45.7641 20.921C46.8557 20.921 47.5942 20.7118 47.984 20.2926C48.3721 19.8734 48.5665 19.2836 48.5665 18.5222L48.5675 14.6346ZM45.766 6.19527C47.674 6.19527 49.0747 6.55761 49.97 7.30064C50.8644 8.02532 51.3121 8.95731 51.3121 10.0618V19.4735C51.3121 19.8541 51.235 20.2734 51.0983 20.7302C50.9626 21.1888 50.6901 21.6071 50.2617 21.9869C49.8535 22.3694 49.2894 22.6932 48.5693 22.9409C47.8501 23.1886 46.9154 23.3216 45.7678 23.3216C44.6212 23.3216 43.6855 23.1886 42.9663 22.9409C42.2471 22.6932 41.6821 22.3694 41.2738 21.9869C40.8947 21.6445 40.6077 21.2124 40.4391 20.7302C40.3015 20.2734 40.2235 19.8541 40.2235 19.4735V17.9691C40.2235 17.1682 40.4382 16.4252 40.8656 15.7767C41.294 15.1107 41.8976 14.6539 42.6755 14.3677C43.0645 14.2346 43.5121 14.1016 44.0185 13.9301C44.523 13.7576 44.9908 13.5861 45.4587 13.4347C45.9265 13.2816 46.3338 13.1284 46.6842 12.9944C46.8951 12.91 47.1093 12.8342 47.3263 12.7669L47.6767 12.5954C47.8125 12.5193 47.9492 12.4046 48.0849 12.2523C48.2242 12.0975 48.342 11.9247 48.4354 11.7386C48.5391 11.532 48.5925 11.3038 48.5913 11.0727V10.4626C48.5927 10.2391 48.5458 10.0178 48.4537 9.81409C48.3767 9.58476 48.2216 9.37561 48.007 9.18573C47.7932 8.99492 47.5024 8.84265 47.1511 8.72707C46.8007 8.61424 46.3347 8.55645 45.8082 8.55645C44.7184 8.55645 43.9992 8.76743 43.6093 9.20407C43.2791 9.58568 43.0846 10.0618 43.0452 10.5947C43.0452 10.7094 42.9489 10.7855 42.8324 10.7855H40.4721C40.4164 10.7853 40.3629 10.7633 40.3232 10.7242C40.2834 10.6852 40.2605 10.6321 40.2593 10.5764V10.0232C40.2593 9.49119 40.3565 8.99584 40.5712 8.51884C40.7849 8.04366 41.1152 7.6428 41.5619 7.30064C42.0114 6.95756 42.5939 6.67135 43.2956 6.48147C43.9561 6.28883 44.7927 6.19527 45.766 6.19527ZM37.4184 6.2714H38.976C39.1117 6.2714 39.209 6.40533 39.1704 6.53743L38.6448 8.51884C38.6265 8.61515 38.5283 8.67203 38.4503 8.67203H37.3606C36.7772 8.67203 36.3102 8.74817 35.9406 8.90136C35.5892 9.05272 35.2984 9.22425 35.103 9.4334C34.9086 9.64439 34.7912 9.85262 34.7334 10.0627C34.681 10.268 34.6548 10.4791 34.6554 10.691V22.9409C34.6542 22.9971 34.6309 23.0506 34.5905 23.0897C34.5502 23.1289 34.496 23.1506 34.4398 23.1501H32.1062C32.0503 23.1501 31.9966 23.1282 31.9566 23.0891C31.9167 23.05 31.8936 22.9968 31.8924 22.9409V10.1379C31.8924 9.91041 31.931 9.56733 32.0282 9.12885C32.1062 8.69129 32.3401 8.27208 32.7098 7.8336C33.0794 7.41438 33.6243 7.0337 34.3637 6.72915C35.104 6.42276 36.1158 6.2714 37.4184 6.2714ZM29.5569 19.0542V19.6257C29.5569 19.8734 29.5202 20.2165 29.4221 20.655C29.3441 21.0733 29.1102 21.5117 28.7405 21.93C28.3708 22.3502 27.826 22.7309 27.0866 23.0354C26.3472 23.3409 25.3345 23.4941 24.0319 23.4941C22.7293 23.4941 21.7166 23.3409 20.9773 23.0354C20.2379 22.7309 19.693 22.3694 19.3233 21.931C18.9536 21.5127 18.7197 21.0742 18.6418 20.6375C18.5647 20.1972 18.5069 19.8743 18.5069 19.6267V6.80528C18.5069 6.69062 18.6041 6.5943 18.7206 6.5943H21.036C21.1534 6.5943 21.2506 6.69062 21.2506 6.80528V18.8066C21.2506 19.2065 21.3084 19.4927 21.3671 19.7211C21.4267 19.9505 21.5432 20.178 21.7184 20.3688C21.8927 20.5779 22.1661 20.7494 22.5349 20.8825C22.8853 21.0164 23.3724 21.0934 23.975 21.0934C24.5988 21.0934 25.1034 21.0164 25.4739 20.8825C25.8436 20.7494 26.1161 20.5779 26.3105 20.3871C26.5032 20.1972 26.6408 19.9881 26.6986 19.7587C26.7573 19.5294 26.8362 19.3404 26.8362 18.7864V6.78694C26.8362 6.67319 26.9325 6.57779 27.049 6.57779H29.3643C29.4799 6.57779 29.5771 6.67319 29.5771 6.78877V19.0561H29.5588L29.5569 19.0542ZM13.6222 0.157472H15.9384C16.0549 0.157472 16.1522 0.251956 16.1522 0.365704V23.0547C16.1514 23.1109 16.1286 23.1645 16.0886 23.204C16.0486 23.2435 15.9946 23.2657 15.9384 23.2657H13.6222C13.566 23.2657 13.512 23.2435 13.472 23.204C13.432 23.1645 13.4092 23.1109 13.4085 23.0547V0.365704C13.4268 0.251956 13.5057 0.157472 13.6222 0.157472Z" fill="white"/>
</g>
<defs>
<clipPath id="clip0_1_46">
<rect width="51.3699" height="23.9726" fill="white"/>
</clipPath>
</defs>
</svg>
